<?xml version="1.0" encoding="utf-8"?>
<!-- Generator: Adobe Illustrator 23.0.6, SVG Export Plug-In . SVG Version: 6.00 Build 0)  -->
<svg version="1.1" id="Layer_1" xmlns="http://www.w3.org/2000/svg" xmlns:xlink="http://www.w3.org/1999/xlink" x="0px" y="0px"
	 viewBox="0 0 50 50" style="enable-background:new 0 0 50 50;" xml:space="preserve">
<style type="text/css">
	.st0{fill:#FFFFFF;}
</style>
<g transform="translate(0,-952.36218)">
	<path class="st0" d="M50,977.4c0-0.7-0.3-1.4-0.8-1.9l-16.7-17.6c-1-1.2-2.8-1.1-3.9-0.1c-1.1,1-1.2,2.9-0.1,3.9l12.2,12.9h-38
		c-1.5,0-2.8,1.2-2.8,2.8c0,1.5,1.2,2.8,2.8,2.8h38L28.6,993c-1.1,1-1,2.9,0.1,3.9c1.1,1,3,1,3.9-0.1l16.7-17.6
		C49.8,978.7,50,978.1,50,977.4L50,977.4z"/>
</g>
</svg>
