<?xml version="1.0" encoding="utf-8"?>
<!-- Generator: Adobe Illustrator 23.0.6, SVG Export Plug-In . SVG Version: 6.00 Build 0)  -->
<svg version="1.1" id="Layer_1" xmlns="http://www.w3.org/2000/svg" xmlns:xlink="http://www.w3.org/1999/xlink" x="0px" y="0px"
	 viewBox="0 0 200 200" style="enable-background:new 0 0 200 200;" xml:space="preserve">
<style type="text/css">
	.st0{fill:#6D7B92;}
	.st1{fill:#C0C0C0;}
	.st2{fill:#FFFFFF;}
	.st3{fill:#F8CD56;}
</style>
<g>
	<path class="st0" d="M169.1,66h-2.3C166.5,32.2,139,4.8,105.1,4.8C71.3,4.8,43.8,32.2,43.6,66h-2.8v0C23.9,66.3,10.3,80,10.3,97
		c0,16.9,13.6,30.7,30.5,30.9v0h128.3c17.1,0,30.9-13.9,30.9-30.9C200,79.9,186.1,66,169.1,66z"/>
	<g>
		<path class="st1" d="M15.4,150.5v-0.1C5.6,149.2-2,140.9-2,130.9c0-10,7.6-18.4,17.4-19.5v-0.1l1.7,0c1.1-19.4,17.4-35,37.1-35
			c19.7,0,35.9,15.5,37.1,35c10.6,0.3,19.1,9,19.1,19.7c0,10.8-8.8,19.7-19.7,19.7H15.4z"/>
		<path class="st2" d="M54.1,78.2c19.3,0,35,15.6,35.1,35h1.3c9.8,0,17.7,7.9,17.7,17.7c0,9.8-7.9,17.7-17.7,17.7H17.4v0
			c-9.6-0.1-17.4-8-17.4-17.7c0-9.7,7.8-17.5,17.4-17.7v0H19C19.1,93.9,34.8,78.2,54.1,78.2 M54.1,74.2c-20.1,0-36.8,15.3-38.9,35
			h-1.8v0.4C3.5,111.6-4,120.4-4,130.9c0,10.4,7.5,19.2,17.4,21.2v0.4l4,0h73.2c11.9,0,21.7-9.7,21.7-21.7
			c0-11.1-8.4-20.3-19.2-21.5C91,89.7,74.3,74.2,54.1,74.2L54.1,74.2z"/>
	</g>
	<g>
		<g>
			<path class="st3" d="M133.4,197.2c-0.5,0-1-0.2-1.4-0.6l-8.8-9c-0.8-0.8-0.8-2.1,0-2.8l19.2-18.7l-23.8-23.3
				c-0.4-0.4-0.6-0.9-0.6-1.4s0.2-1.1,0.6-1.4l29.9-29.2c0.4-0.4,0.9-0.6,1.4-0.6c0.5,0,1,0.2,1.4,0.6l8.8,9
				c0.4,0.4,0.6,0.9,0.6,1.4s-0.2,1-0.6,1.4l-19.2,18.7l23.8,23.3c0.4,0.4,0.6,0.9,0.6,1.4s-0.2,1.1-0.6,1.4l-29.9,29.2
				C134.4,197,133.9,197.2,133.4,197.2C133.4,197.2,133.4,197.2,133.4,197.2z"/>
			<path class="st2" d="M149.8,112.1l8.8,9L138,141.3l25.2,24.7l-29.9,29.2l-8.8-9l20.6-20.2L120,141.3L149.8,112.1 M149.8,108.1
				c-1,0-2,0.4-2.8,1.1l-29.9,29.2c-0.8,0.8-1.2,1.8-1.2,2.9c0,1.1,0.4,2.1,1.2,2.9l22.3,21.8l-17.7,17.3c-1.6,1.5-1.6,4.1-0.1,5.7
				l8.8,9c0.7,0.8,1.8,1.2,2.8,1.2c0,0,0,0,0,0c1,0,2-0.4,2.8-1.1l29.9-29.2c0.8-0.8,1.2-1.8,1.2-2.9c0-1.1-0.4-2.1-1.2-2.9
				l-22.3-21.8l17.7-17.3c0.8-0.7,1.2-1.8,1.2-2.8c0-1.1-0.4-2.1-1.1-2.8l-8.8-9C151.9,108.5,150.9,108.1,149.8,108.1L149.8,108.1z"
				/>
		</g>
	</g>
</g>
</svg>
