<?xml version="1.0" encoding="utf-8"?>
<!-- Generator: Adobe Illustrator 23.0.6, SVG Export Plug-In . SVG Version: 6.00 Build 0)  -->
<svg version="1.1" id="Layer_1" xmlns="http://www.w3.org/2000/svg" xmlns:xlink="http://www.w3.org/1999/xlink" x="0px" y="0px"
	 viewBox="0 0 50 50" style="enable-background:new 0 0 50 50;" xml:space="preserve">
<style type="text/css">
	.st0{fill:#FFFFFF;}
</style>
<g>
	<g>
		<path class="st0" d="M25,11.8h-9.1L22.7,5c1.2-1.2,1.2-3,0-4.2c-1.2-1.2-3-1.2-4.2,0L6.7,12.6c-1.1,1.1-1.1,3,0,4.1l11.8,11.8
			c1.1,1.2,3,1.2,4.2,0c1.2-1.1,1.2-3,0-4.2l-6.8-6.7H25c7.3,0,13.2,5.9,13.2,13.2S32.3,44.1,25,44.1c-5,0-9.5-2.8-11.8-7.2
			c-0.7-1.5-2.4-2.1-3.9-1.4c-1.5,0.7-2.1,2.4-1.4,3.9c0,0.1,0.1,0.1,0.1,0.2c4.8,9.4,16.3,13.1,25.7,8.3
			c9.4-4.8,13.1-16.3,8.3-25.7C38.8,15.8,32.2,11.8,25,11.8z"/>
	</g>
</g>
</svg>
